<?xml version="1.0" encoding="UTF-8"?>
<svg width="560px" height="570px" viewBox="0 0 560 570" version="1.1" xmlns="http://www.w3.org/2000/svg" xmlns:xlink="http://www.w3.org/1999/xlink">
    <!-- Generator: Sketch 52.6 (67491) - http://www.bohemiancoding.com/sketch -->
    <title>logo gold</title>
    <desc>Created with Sketch.</desc>
    <g id="Page-1" stroke="none" stroke-width="1" fill="none" fill-rule="evenodd" stroke-linecap="round">
        <g id="logo-gold" transform="translate(20.000000, 25.000000)" stroke="#B6A269" stroke-width="40">
            <polygon id="out" points="0 0 260 52 520 0 520 520 260 468 0 520"></polygon>
            <g id="in" transform="translate(0.000000, 103.000000)">
                <path d="M0,1 L208,42.5" id="Line-5"></path>
                <path d="M312,43 L520,1" id="Line-6"></path>
                <path d="M209,43 L209,105" id="Line-7"></path>
                <path d="M209,105 L312,105" id="Line-8"></path>
                <path d="M312,105 L312,43" id="Line-9"></path>
                <path d="M208,271.5 L104,293" id="Line-10"></path>
                <path d="M312,271 L416.5,293" id="Line-11"></path>
                <path d="M104.5,22 L104,293" id="Line-12"></path>
                <path d="M417,22 L417,293" id="Line-13"></path>
                <path d="M208,271 L208,209" id="Line-14"></path>
                <path d="M208,209 L312,209" id="Line-15"></path>
                <path d="M312,209 L312,271" id="Line-16"></path>
            </g>
        </g>
    </g>
</svg>